<svg width="1261" height="1215" xmlns="http://www.w3.org/2000/svg" xmlns:xlink="http://www.w3.org/1999/xlink" overflow="hidden"><defs><clipPath id="clip0"><rect x="1155" y="339" width="1261" height="1215"/></clipPath></defs><g clip-path="url(#clip0)" transform="translate(-1155 -339)"><path d="M1426.5 562.5C1500.02 553.384 1555.73 580.279 1592.1 562.5 1628.47 544.72 1686.3 563.735 1779.3 562.5 1872.3 561.265 1910.34 570.684 1959.3 562.5 2008.26 554.315 2090.88 576.162 2146.5 562.5 2149.6 648.427 2134.74 662.899 2146.5 749.7 2158.26 836.501 2134.24 863.132 2146.5 944.1 2158.76 1025.07 2134.33 1048.81 2146.5 1124.1 2158.67 1199.39 2144.75 1206.27 2146.5 1282.5 2060.67 1284.89 2009.63 1281.03 1973.7 1282.5 1937.77 1283.97 1879.84 1274.95 1815.3 1282.5 1750.76 1290.05 1687.02 1266.44 1649.7 1282.5 1612.38 1298.56 1497.41 1263.31 1426.5 1282.5 1421.73 1212.92 1430.97 1201.55 1426.5 1124.1 1422.03 1046.65 1434.01 1041.1 1426.5 965.7 1418.99 890.297 1444.91 881.219 1426.5 800.1 1408.09 718.981 1438.05 642.405 1426.5 562.5Z" stroke="#800000" stroke-width="25.2083" stroke-linecap="round" stroke-linejoin="round" stroke-miterlimit="10" fill="#800000" fill-rule="evenodd"/><text fill="#FFFFFF" font-family="zktqkt,zktqkt_MSFontService,sans-serif" font-weight="700" font-size="403" transform="matrix(1 0 0 1 1397.9 879)">智能<tspan font-size="403" x="0" y="367">研选</tspan></text></g></svg>